<svg width="32" height="32" viewBox="0 0 64 64" fill="none" xmlns="http://www.w3.org/2000/svg">
  <rect width="64" height="64" rx="14" fill="#0a0f1a"/>
  <ellipse cx="28" cy="44" rx="14" ry="10" fill="rgba(74,156,255,0.1)" stroke="#4a9cff" stroke-width="2" stroke-linecap="round" stroke-linejoin="round"/>
  <path d="M12 42 C6 38, 4 28, 10 24 C14 21, 16 26, 14 30" fill="none" stroke="#4a9cff" stroke-width="2.5" stroke-linecap="round" stroke-linejoin="round"/>
  <circle cx="38" cy="26" r="12" fill="rgba(74,156,255,0.1)" stroke="#4a9cff" stroke-width="2" stroke-linecap="round" stroke-linejoin="round"/>
  <path d="M30 16 L27 4 L35 12" fill="rgba(74,156,255,0.1)" stroke="#4a9cff" stroke-width="2" stroke-linecap="round" stroke-linejoin="round"/>
  <path d="M44 14 L48 2 L50 12" fill="rgba(74,156,255,0.1)" stroke="#4a9cff" stroke-width="2" stroke-linecap="round" stroke-linejoin="round"/>
  <ellipse cx="33" cy="25" rx="2.5" ry="3" fill="#4a9cff"/>
  <ellipse cx="43" cy="24" rx="2.5" ry="3" fill="#4a9cff"/>
  <ellipse cx="33" cy="25.5" rx="1.2" ry="1.8" fill="#0a0f1a"/>
  <ellipse cx="43" cy="24.5" rx="1.2" ry="1.8" fill="#0a0f1a"/>
  <path d="M35 30.5 Q38 33, 38 30.5 Q38 33, 41 30.5" fill="none" stroke="#4a9cff" stroke-width="1.5" stroke-linecap="round" stroke-linejoin="round"/>
  <path d="M40 38 C44 40, 50 42, 54 40 C56 39, 56 37, 54 36" fill="rgba(74,156,255,0.1)" stroke="#4a9cff" stroke-width="2" stroke-linecap="round" stroke-linejoin="round"/>
</svg>
